<?xml version="1.0" encoding="UTF-8"?> <svg xmlns="http://www.w3.org/2000/svg" width="160" height="43" viewBox="0 0 160 43" fill="none"> <g clip-path="url(#clip0_17_40)"> <path d="M0 30.0417L10.6667 19.375V40.7083L0 30.0417Z" fill="#31BE00"></path> <path d="M3.2 11.9081L10.6667 4.44141V19.3747L3.2 11.9081Z" fill="#F0D031"></path> <path d="M10.6667 19.3748L38.3795 3.3748L21.5967 0.439584L10.6667 19.3748Z" fill="#FF8E25"></path> <path d="M10.6667 19.375L43.922 38.575L23.7877 42.1155L10.6667 19.375Z" fill="#2E3192"></path> </g> <path d="M49.82 31V12.28H51.731V21.12L60.272 12.28H62.716L53.993 21.315L63.431 31H60.935L51.731 21.64V31H49.82ZM63.9565 31V29.323C64.4765 29.4183 64.8708 29.3967 65.1395 29.258C65.4168 29.1107 65.6205 28.868 65.7505 28.53C65.8805 28.1833 65.9888 27.7543 66.0755 27.243C66.2142 26.3937 66.3398 25.4577 66.4525 24.435C66.5652 23.4123 66.6648 22.2857 66.7515 21.055C66.8468 19.8157 66.9422 18.4507 67.0375 16.96H76.5795V31H74.6815V18.793H68.8055C68.7448 19.7117 68.6755 20.626 68.5975 21.536C68.5195 22.446 68.4372 23.3213 68.3505 24.162C68.2725 24.994 68.1858 25.761 68.0905 26.463C67.9952 27.165 67.8955 27.7717 67.7915 28.283C67.6355 29.0543 67.4275 29.6697 67.1675 30.129C66.9162 30.5883 66.5392 30.8917 66.0365 31.039C65.5338 31.1863 64.8405 31.1733 63.9565 31ZM87.1146 31.39C85.7192 31.39 84.5276 31.0737 83.5396 30.441C82.5516 29.8083 81.7932 28.933 81.2646 27.815C80.7359 26.697 80.4716 25.4143 80.4716 23.967C80.4716 22.4937 80.7402 21.2023 81.2776 20.093C81.8149 18.9837 82.5776 18.1213 83.5656 17.506C84.5622 16.882 85.7452 16.57 87.1146 16.57C88.5186 16.57 89.7146 16.8863 90.7026 17.519C91.6992 18.143 92.4576 19.014 92.9776 20.132C93.5062 21.2413 93.7706 22.5197 93.7706 23.967C93.7706 25.4403 93.5062 26.736 92.9776 27.854C92.4489 28.9633 91.6862 29.83 90.6896 30.454C89.6929 31.078 88.5012 31.39 87.1146 31.39ZM87.1146 29.557C88.6746 29.557 89.8359 29.0413 90.5986 28.01C91.3612 26.97 91.7426 25.6223 91.7426 23.967C91.7426 22.2683 91.3569 20.9163 90.5856 19.911C89.8229 18.9057 88.6659 18.403 87.1146 18.403C86.0659 18.403 85.1992 18.6413 84.5146 19.118C83.8386 19.586 83.3316 20.2403 82.9936 21.081C82.6642 21.913 82.4996 22.875 82.4996 23.967C82.4996 25.657 82.8896 27.0133 83.6696 28.036C84.4496 29.05 85.5979 29.557 87.1146 29.557ZM97.6653 31V16.96H103.45C103.745 16.96 104.1 16.9773 104.516 17.012C104.941 17.0467 105.335 17.1117 105.699 17.207C106.488 17.415 107.121 17.8397 107.597 18.481C108.083 19.1223 108.325 19.8937 108.325 20.795C108.325 21.2977 108.247 21.7483 108.091 22.147C107.944 22.537 107.732 22.875 107.454 23.161C107.324 23.3083 107.181 23.4383 107.025 23.551C106.869 23.655 106.718 23.7417 106.57 23.811C106.848 23.863 107.147 23.9843 107.467 24.175C107.97 24.4697 108.351 24.8683 108.611 25.371C108.871 25.865 109.001 26.4673 109.001 27.178C109.001 28.14 108.772 28.9243 108.312 29.531C107.853 30.1377 107.238 30.5537 106.466 30.779C106.12 30.8743 105.743 30.935 105.335 30.961C104.937 30.987 104.56 31 104.204 31H97.6653ZM99.5893 29.375H104.113C104.295 29.375 104.525 29.362 104.802 29.336C105.08 29.3013 105.327 29.258 105.543 29.206C106.055 29.076 106.427 28.816 106.661 28.426C106.904 28.0273 107.025 27.594 107.025 27.126C107.025 26.5107 106.843 26.008 106.479 25.618C106.124 25.2193 105.647 24.9767 105.049 24.89C104.85 24.8467 104.642 24.8207 104.425 24.812C104.209 24.8033 104.014 24.799 103.84 24.799H99.5893V29.375ZM99.5893 23.161H103.515C103.741 23.161 103.992 23.148 104.269 23.122C104.555 23.0873 104.802 23.031 105.01 22.953C105.461 22.797 105.79 22.5283 105.998 22.147C106.215 21.7657 106.323 21.3497 106.323 20.899C106.323 20.405 106.206 19.9717 105.972 19.599C105.747 19.2263 105.405 18.9663 104.945 18.819C104.633 18.7063 104.295 18.6413 103.931 18.624C103.576 18.6067 103.351 18.598 103.255 18.598H99.5893V23.161ZM118.573 31.39C117.204 31.39 116.017 31.0867 115.011 30.48C114.015 29.8733 113.239 29.0197 112.684 27.919C112.13 26.8183 111.852 25.527 111.852 24.045C111.852 22.511 112.125 21.185 112.671 20.067C113.217 18.949 113.984 18.0867 114.972 17.48C115.969 16.8733 117.143 16.57 118.495 16.57C119.882 16.57 121.065 16.8907 122.044 17.532C123.024 18.1647 123.765 19.0747 124.267 20.262C124.77 21.4493 125 22.8663 124.956 24.513H123.006V23.837C122.972 22.017 122.577 20.6433 121.823 19.716C121.078 18.7887 119.986 18.325 118.547 18.325C117.039 18.325 115.882 18.8147 115.076 19.794C114.279 20.7733 113.88 22.1687 113.88 23.98C113.88 25.748 114.279 27.1217 115.076 28.101C115.882 29.0717 117.022 29.557 118.495 29.557C119.501 29.557 120.376 29.3273 121.121 28.868C121.875 28.4 122.469 27.7283 122.902 26.853L124.683 27.542C124.129 28.764 123.31 29.713 122.226 30.389C121.152 31.0563 119.934 31.39 118.573 31.39ZM113.204 24.513V22.914H123.929V24.513H113.204ZM135.186 31.39C133.895 31.39 132.803 31.065 131.91 30.415C131.018 29.7563 130.342 28.868 129.882 27.75C129.423 26.6233 129.193 25.3623 129.193 23.967C129.193 22.5457 129.423 21.2803 129.882 20.171C130.35 19.053 131.035 18.1733 131.936 17.532C132.838 16.8907 133.947 16.57 135.264 16.57C136.547 16.57 137.648 16.895 138.566 17.545C139.485 18.195 140.187 19.079 140.672 20.197C141.166 21.315 141.413 22.5717 141.413 23.967C141.413 25.371 141.166 26.632 140.672 27.75C140.178 28.868 139.468 29.7563 138.54 30.415C137.613 31.065 136.495 31.39 135.186 31.39ZM128.868 37.24V16.96H130.584V27.529H130.792V37.24H128.868ZM134.991 29.609C135.971 29.609 136.785 29.362 137.435 28.868C138.085 28.374 138.571 27.7023 138.891 26.853C139.221 25.995 139.385 25.033 139.385 23.967C139.385 22.9097 139.225 21.9563 138.904 21.107C138.584 20.2577 138.094 19.586 137.435 19.092C136.785 18.598 135.958 18.351 134.952 18.351C133.973 18.351 133.158 18.5893 132.508 19.066C131.867 19.5427 131.386 20.2057 131.065 21.055C130.745 21.8957 130.584 22.8663 130.584 23.967C130.584 25.0503 130.745 26.021 131.065 26.879C131.386 27.7283 131.871 28.3957 132.521 28.881C133.171 29.3663 133.995 29.609 134.991 29.609ZM156.462 16.96V31H154.603V20.067L146.907 31H145.295V16.96H147.154V27.802L154.863 16.96H156.462Z" fill="#2E3192"></path> <defs> <clipPath id="clip0_17_40"> <rect width="44" height="42.2162" fill="white"></rect> </clipPath> </defs> </svg> 